<svg xmlns="http://www.w3.org/2000/svg" width="1320" height="620" viewBox="0 0 1320 620">
<rect width="100%" height="100%" fill="#ffffff"/>
<text x="660.0" y="35" text-anchor="middle" font-family="Arial" font-size="22" font-weight="700">Strict ablations: relative MSE gain versus APN</text>
<line x1="92" y1="510.00" x2="1280" y2="510.00" stroke="#E8EBF0"/>
<text x="82" y="515.00" text-anchor="end" font-family="Arial" font-size="12" fill="#41464F">-157.197</text>
<line x1="92" y1="422.00" x2="1280" y2="422.00" stroke="#E8EBF0"/>
<text x="82" y="427.00" text-anchor="end" font-family="Arial" font-size="12" fill="#41464F">-123.217</text>
<line x1="92" y1="334.00" x2="1280" y2="334.00" stroke="#E8EBF0"/>
<text x="82" y="339.00" text-anchor="end" font-family="Arial" font-size="12" fill="#41464F">-89.238</text>
<line x1="92" y1="246.00" x2="1280" y2="246.00" stroke="#E8EBF0"/>
<text x="82" y="251.00" text-anchor="end" font-family="Arial" font-size="12" fill="#41464F">-55.258</text>
<line x1="92" y1="158.00" x2="1280" y2="158.00" stroke="#E8EBF0"/>
<text x="82" y="163.00" text-anchor="end" font-family="Arial" font-size="12" fill="#41464F">-21.279</text>
<line x1="92" y1="70.00" x2="1280" y2="70.00" stroke="#E8EBF0"/>
<text x="82" y="75.00" text-anchor="end" font-family="Arial" font-size="12" fill="#41464F">12.701</text>
<line x1="92" y1="102.89" x2="1280" y2="102.89" stroke="#333" stroke-width="1.3"/>
<rect x="161.00" y="102.39" width="36.00" height="1.00" fill="#2667FF"/>
<rect x="203.00" y="101.37" width="36.00" height="1.52" fill="#E45756"/>
<rect x="245.00" y="100.76" width="36.00" height="2.13" fill="#3A9D5D"/>
<rect x="287.00" y="102.89" width="36.00" height="1.00" fill="#F2A541"/>
<rect x="329.00" y="102.84" width="36.00" height="1.00" fill="#7B61FF"/>
<rect x="371.00" y="102.86" width="36.00" height="1.00" fill="#6C757D"/>
<rect x="413.00" y="100.80" width="36.00" height="2.09" fill="#17A2B8"/>
<rect x="455.00" y="100.34" width="36.00" height="2.55" fill="#D65DB1"/>
<rect x="497.00" y="100.57" width="36.00" height="2.32" fill="#845EC2"/>
<rect x="539.00" y="102.42" width="36.00" height="1.00" fill="#008F7A"/>
<rect x="581.00" y="102.89" width="36.00" height="1.00" fill="#C34A36"/>
<text x="389.00" y="538" text-anchor="middle" font-family="Arial" font-size="13" font-weight="600">P12</text>
<rect x="755.00" y="102.89" width="36.00" height="312.38" fill="#2667FF"/>
<rect x="797.00" y="102.89" width="36.00" height="75.54" fill="#E45756"/>
<rect x="839.00" y="102.89" width="36.00" height="376.76" fill="#3A9D5D"/>
<rect x="881.00" y="102.89" width="36.00" height="5.31" fill="#F2A541"/>
<rect x="923.00" y="102.89" width="36.00" height="62.50" fill="#7B61FF"/>
<rect x="965.00" y="102.89" width="36.00" height="7.82" fill="#6C757D"/>
<rect x="1007.00" y="102.89" width="36.00" height="343.74" fill="#17A2B8"/>
<rect x="1049.00" y="102.89" width="36.00" height="326.65" fill="#D65DB1"/>
<rect x="1091.00" y="102.89" width="36.00" height="353.26" fill="#845EC2"/>
<rect x="1133.00" y="102.89" width="36.00" height="325.66" fill="#008F7A"/>
<rect x="1175.00" y="102.89" width="36.00" height="11.57" fill="#C34A36"/>
<text x="983.00" y="538" text-anchor="middle" font-family="Arial" font-size="13" font-weight="600">USHCN</text>
<rect x="92.00" y="584" width="12" height="12" fill="#2667FF"/>
<text x="108.00" y="595" font-family="Arial" font-size="10">SLRH</text>
<rect x="200.00" y="584" width="12" height="12" fill="#E45756"/>
<text x="216.00" y="595" font-family="Arial" font-size="10">CFG</text>
<rect x="308.00" y="584" width="12" height="12" fill="#3A9D5D"/>
<text x="324.00" y="595" font-family="Arial" font-size="10">Full</text>
<rect x="416.00" y="584" width="12" height="12" fill="#F2A541"/>
<text x="432.00" y="595" font-family="Arial" font-size="10">V01</text>
<rect x="524.00" y="584" width="12" height="12" fill="#7B61FF"/>
<text x="540.00" y="595" font-family="Arial" font-size="10">V02</text>
<rect x="632.00" y="584" width="12" height="12" fill="#6C757D"/>
<text x="648.00" y="595" font-family="Arial" font-size="10">V03</text>
<rect x="740.00" y="584" width="12" height="12" fill="#17A2B8"/>
<text x="756.00" y="595" font-family="Arial" font-size="10">V07</text>
<rect x="848.00" y="584" width="12" height="12" fill="#D65DB1"/>
<text x="864.00" y="595" font-family="Arial" font-size="10">V08</text>
<rect x="956.00" y="584" width="12" height="12" fill="#845EC2"/>
<text x="972.00" y="595" font-family="Arial" font-size="10">V10</text>
<rect x="1064.00" y="584" width="12" height="12" fill="#008F7A"/>
<text x="1080.00" y="595" font-family="Arial" font-size="10">V11</text>
<rect x="1172.00" y="584" width="12" height="12" fill="#C34A36"/>
<text x="1188.00" y="595" font-family="Arial" font-size="10">V12</text>
<text transform="translate(22 290.0) rotate(-90)" text-anchor="middle" font-family="Arial" font-size="13">Relative MSE gain (%)</text>
</svg>
